<?xml version="1.0" encoding="UTF-8"?>
<svg width="60px" height="27px" viewBox="0 0 60 27" version="1.1" xmlns="http://www.w3.org/2000/svg" xmlns:xlink="http://www.w3.org/1999/xlink">
    <!-- Generator: Sketch 62 (91390) - https://sketch.com -->
    <title>Combined Shape</title>
    <desc>Created with Sketch.</desc>
    <g id="Page-1" stroke="none" stroke-width="1" fill="none" fill-rule="evenodd">
        <path d="M18.750548,6.29699948 C22.1493045,6.29699948 25.2847164,9.24800207 25.2847164,13.8850002 C25.2847164,18.5222252 22.2284667,21.4993127 18.8297101,21.4993127 C16.9064549,21.4993127 15.0358232,20.4454805 14.1135498,18.890817 L14.1135498,26.663227 L10.4775336,26.663227 L10.4775336,6.63950632 L13.5340101,6.63950632 L13.9026019,9.01096919 C14.9038106,7.35105859 16.6689683,6.29699948 18.750548,6.29699948 Z M37.0358764,6.63950632 L37.0358764,15.3605015 C37.0358764,17.1782828 38.0370851,18.1794915 39.7493924,18.1794915 C41.488692,18.1794915 42.5425243,17.1782828 42.5425243,15.3341897 L42.5425243,6.63950632 L46.1783138,6.63950632 L46.1783138,15.3341897 C46.1783138,18.9436674 43.7281423,21.4995396 39.7493924,21.4995396 C35.7710962,21.4995396 33.3998601,18.9436674 33.3998601,15.3605015 L33.3998601,6.63950632 L37.0358764,6.63950632 Z M53.820299,6.29715826 C55.5065214,6.29715826 57.2455942,6.74491223 58.3257382,7.45623768 L58.3257382,10.6442731 C57.2979909,9.88032412 55.6119954,9.30055759 53.9520848,9.30055759 C52.4765835,9.30055759 51.6600109,9.85423917 51.6600109,10.7234353 C51.6600109,11.6457087 52.608596,12.0145273 54.3735269,12.4885931 C56.6921394,13.0946714 59.221473,13.8849322 59.221473,16.8885583 C59.221473,19.6812366 57.0348731,21.4992447 53.2933829,21.4992447 C51.2646536,21.4992447 49.4731841,20.9460168 48.1820921,20.0239702 L48.1820921,16.5723633 C49.3677102,17.6261956 51.0276208,18.4693068 53.1352853,18.4693068 C54.7688842,18.4693068 55.6909307,17.8636821 55.6909307,16.9148701 C55.6909307,15.8873496 54.5581631,15.5448428 52.608596,14.9653031 C50.2634449,14.306828 48.1294686,13.4106396 48.1294686,10.8023707 C48.1294686,8.19410174 50.2634449,6.29715826 53.820299,6.29715826 Z M30.8714338,0.000226825718 L30.8714338,21.1304034 L27.2356444,21.1304034 L27.2356444,0.000226825718 L30.8714338,0.000226825718 Z M17.8285014,9.59028208 C15.6945251,9.59028208 14.0609262,11.3558935 14.0609262,13.8850002 C14.0609262,16.4143338 15.6945251,18.1794915 17.8021896,18.1794915 C19.9890164,18.1794915 21.6223884,16.3877952 21.6223884,13.8584616 C21.6223884,11.3558935 19.9890164,9.59028208 17.8285014,9.59028208 Z M5.3642014,3.55271368e-15 L5.3642014,3.67366932 L9.02199292,3.67366932 L9.02199292,5.37962555 L5.3642014,5.37962555 L5.3642014,9.05306805 L3.56570028,9.05306805 L3.56570028,5.37962555 L0,5.37962555 L0,3.67366932 L3.56570028,3.67366932 L3.56570028,3.55271368e-15 L5.3642014,3.55271368e-15 Z" id="Combined-Shape" fill="#FFFFFF"></path>
    </g>
</svg>